# xmcd
#
# Track frame offsets:
#	150
#	13502
#	31683
#	44135
#	57637
#	68289
#	84191
#	96728
#	108130
#	120132
#	134131
#
# Disc length: 1960 seconds
#
# Revision: 0
# Processed by: cddbd v1.5.2PL0 Copyright (c) Steve Scherf et al.
# Submitted via: dBpowerAMP V4.0
#
DISCID=8b07a60b
DTITLE=Northern Comfort - Welcome
DYEAR=2005
DGENRE=Country
TTITLE0=Hurricane
TTITLE1=18 Wheels
TTITLE2=Ruby
TTITLE3=Ring of fire
TTITLE4=On the road again
TTITLE5=Honky Tonk baby
TTITLE6=Easy rider
TTITLE7=Some days you gotta dance
TTITLE8=Right now
TTITLE9=Nashville
TTITLE10=King of the road
EXTD=jo.wijo\n\nNorthern Comfort, Country Music\nWelcome
EXTT0=
EXTT1=
EXTT2=
EXTT3=
EXTT4=
EXTT5=
EXTT6=
EXTT7=
EXTT8=
EXTT9=
EXTT10=
PLAYORDER=
